<?xml version="1.0" encoding="UTF-8" ?>
<!DOCTYPE svg PUBLIC "-//W3C//DTD SVG 1.1//EN" "http://www.w3.org/Graphics/SVG/1.1/DTD/svg11.dtd">
<svg width="270pt" height="92pt" viewBox="0 0 270 92" version="1.1" xmlns="http://www.w3.org/2000/svg">
<g id="#df0615ff">
<path fill="#df0615" opacity="1.00" d=" M 30.60 12.89 C 44.71 9.41 60.66 17.12 66.74 30.31 C 72.15 41.36 70.02 55.59 61.53 64.51 C 52.89 74.01 38.27 77.67 26.30 72.77 C 16.40 69.17 8.57 60.29 6.49 49.92 C 5.37 43.19 5.84 35.98 9.03 29.84 C 13.17 21.26 21.47 15.22 30.60 12.89 M 14.83 27.86 C 9.56 35.08 8.26 44.86 11.50 53.20 C 22.56 43.55 31.31 30.80 34.30 16.26 C 26.66 17.47 19.27 21.39 14.83 27.86 M 41.49 16.27 C 44.90 30.69 52.77 44.03 63.92 53.80 C 66.34 46.98 66.59 39.19 63.42 32.56 C 59.55 23.79 50.89 17.71 41.49 16.27 M 32.37 31.87 C 33.71 31.46 35.05 31.04 36.39 30.63 C 36.38 27.72 36.42 24.81 36.44 21.90 C 35.15 25.25 33.85 28.60 32.37 31.87 M 39.54 21.75 C 39.41 24.73 39.46 27.72 39.46 30.70 C 40.79 31.08 42.12 31.47 43.45 31.86 C 41.97 28.55 40.82 25.12 39.54 21.75 M 28.30 42.99 C 27.81 48.69 33.54 53.61 39.10 52.66 C 45.50 52.21 49.27 44.82 47.00 39.04 C 44.72 42.00 44.00 45.73 42.96 49.24 C 42.06 49.27 40.25 49.34 39.35 49.38 C 38.84 47.49 38.39 45.60 37.93 43.70 C 37.33 45.56 36.78 47.44 36.26 49.33 C 35.38 49.32 33.62 49.30 32.74 49.29 C 31.60 45.98 30.54 42.64 29.37 39.34 C 30.33 39.35 32.24 39.37 33.19 39.38 C 33.71 41.29 34.25 43.19 34.80 45.08 C 35.26 43.19 35.70 41.28 36.16 39.38 C 37.21 39.35 38.26 39.32 39.31 39.29 C 39.80 41.27 40.30 43.25 40.83 45.22 C 41.37 43.30 41.85 41.37 42.34 39.44 C 43.86 39.32 45.39 39.20 46.92 39.10 C 45.20 37.20 43.45 35.01 40.86 34.30 C 35.29 32.11 28.09 36.94 28.30 42.99 M 12.78 56.17 C 14.81 59.44 17.24 62.45 20.08 65.06 C 23.28 61.12 26.47 56.91 27.88 51.96 C 26.80 49.29 25.49 46.69 24.88 43.85 C 21.14 48.24 17.20 52.46 12.78 56.17 M 50.84 44.23 C 50.22 47.17 49.02 49.94 47.16 52.32 C 49.44 56.77 51.58 61.40 54.88 65.21 C 57.95 62.96 60.28 59.93 62.48 56.87 C 58.23 53.02 54.26 48.85 50.84 44.23 M 30.73 54.03 C 28.75 58.71 25.93 62.95 22.80 66.93 C 27.01 69.17 31.60 70.61 36.36 70.98 C 36.39 65.97 36.37 60.96 36.43 55.95 C 34.51 55.35 32.62 54.70 30.73 54.03 M 39.54 55.91 C 39.50 60.93 39.43 65.96 39.49 70.99 C 43.93 70.59 48.19 69.22 52.16 67.24 C 49.26 63.12 46.74 58.76 44.57 54.22 C 42.90 54.80 41.22 55.37 39.54 55.91 Z" />
<path fill="#df0615" opacity="1.00" d=" M 247.67 12.75 C 252.46 10.20 259.01 17.63 255.22 22.06 C 252.81 26.00 246.46 25.70 244.23 21.72 C 241.81 18.42 244.52 14.32 247.67 12.75 M 246.40 14.34 C 247.83 14.54 250.70 14.95 252.13 15.15 C 250.64 15.81 248.99 15.99 247.40 16.21 C 248.14 17.43 249.24 18.21 250.62 18.57 C 251.48 17.40 252.33 16.22 253.34 15.16 C 252.98 16.81 252.55 18.43 252.06 20.04 C 252.72 20.80 253.38 21.57 254.04 22.33 C 254.39 20.42 256.00 18.24 254.37 16.50 C 253.02 13.40 249.08 14.10 246.40 14.34 M 246.38 22.81 C 246.65 20.18 246.66 17.53 246.47 14.89 C 244.24 17.15 244.65 20.40 246.38 22.81 M 248.06 18.90 C 247.96 20.10 247.76 22.51 247.66 23.71 C 249.45 23.62 251.24 23.50 253.03 23.33 C 251.64 21.57 250.18 19.79 248.06 18.90 Z" />
<path fill="#df0615" opacity="1.00" d=" M 225.72 20.74 C 227.01 19.01 229.18 18.43 231.08 17.64 C 229.42 21.84 227.97 26.16 228.04 30.73 C 232.22 29.04 234.98 25.33 235.79 20.93 C 237.51 23.86 240.84 25.24 242.74 27.95 C 240.67 33.08 234.13 33.42 229.88 35.99 C 227.96 36.55 228.49 38.93 227.92 40.40 C 231.08 37.97 234.29 35.61 237.54 33.31 C 239.08 34.87 238.65 36.92 238.22 38.84 C 239.87 38.17 241.51 37.46 243.18 36.83 C 243.28 38.68 243.54 40.53 243.41 42.39 C 239.74 45.09 236.03 47.97 233.90 52.12 C 236.09 54.42 239.31 55.32 241.98 56.95 C 248.65 60.86 256.27 62.53 263.50 65.07 C 259.71 65.85 255.90 66.71 252.44 68.53 C 251.94 68.55 250.93 68.59 250.42 68.61 C 243.19 63.48 236.18 57.88 228.38 53.65 C 228.04 57.47 228.32 61.30 228.27 65.12 C 227.59 66.95 225.74 68.43 223.76 67.49 C 222.76 63.69 221.07 60.17 218.77 56.98 C 220.02 57.60 221.25 58.25 222.49 58.88 C 222.59 56.57 222.68 54.25 222.81 51.93 C 221.00 54.08 219.26 56.35 216.95 57.99 C 214.82 57.65 213.68 55.65 212.35 54.19 C 215.65 51.25 219.62 48.98 222.34 45.44 C 222.86 43.01 222.52 40.48 222.63 38.01 C 219.41 37.43 217.18 35.17 217.15 31.81 C 218.98 31.69 220.82 31.61 222.65 31.55 C 223.39 27.90 223.25 23.77 225.72 20.74 M 232.63 46.43 C 235.18 45.35 237.21 43.03 237.10 40.11 C 235.07 41.78 233.54 43.97 232.63 46.43 M 228.99 51.13 C 229.93 50.76 230.82 50.26 231.70 49.75 C 230.77 48.26 230.13 46.63 229.82 44.91 C 228.26 46.64 227.39 49.09 228.99 51.13 Z" />
<path fill="#df0615" opacity="1.00" d=" M 156.90 29.44 C 158.02 25.02 160.78 21.17 164.74 18.86 C 164.48 22.12 163.05 25.12 162.22 28.25 C 164.52 27.27 166.45 25.68 168.20 23.92 C 169.24 24.37 170.28 24.82 171.33 25.27 C 169.52 28.65 166.75 31.33 164.50 34.39 C 166.34 33.33 167.98 31.98 169.67 30.70 C 173.18 32.48 177.23 31.67 180.42 29.61 C 181.83 30.35 183.22 31.10 184.62 31.86 C 183.25 35.72 181.98 39.68 182.20 43.84 C 179.41 46.46 175.32 45.47 171.85 45.91 C 173.23 46.93 174.54 48.13 176.19 48.71 C 179.64 48.35 181.93 45.42 184.00 42.96 C 185.17 45.00 186.35 47.05 187.47 49.13 C 184.77 50.31 181.84 50.80 178.91 50.99 C 185.65 56.80 193.20 61.63 201.55 64.76 C 198.38 65.74 195.31 67.78 191.87 67.37 C 186.52 64.23 182.03 59.83 177.20 55.98 C 175.20 59.04 173.83 62.43 173.11 66.01 C 172.51 66.44 171.31 67.30 170.71 67.73 C 169.21 66.37 167.82 64.90 166.49 63.37 C 167.55 55.33 167.00 47.25 167.22 39.18 C 166.93 39.34 166.36 39.64 166.08 39.79 C 164.52 43.41 161.69 46.76 162.18 50.95 C 162.02 56.24 164.59 62.51 160.26 66.78 C 158.76 65.62 157.13 64.59 155.88 63.13 C 156.10 60.22 156.45 57.32 156.48 54.40 C 154.88 56.17 153.49 58.14 151.70 59.72 C 149.93 59.84 148.18 59.50 146.44 59.29 C 146.30 51.39 157.60 49.35 156.81 41.22 C 154.51 42.34 152.34 43.70 150.00 44.71 C 147.66 44.29 145.77 42.75 144.03 41.24 C 147.75 37.45 154.63 39.72 157.44 34.71 C 154.71 34.11 152.11 33.02 151.47 30.02 C 153.27 29.81 155.09 29.63 156.90 29.44 M 162.23 31.54 C 162.07 31.91 161.74 32.64 161.57 33.00 C 163.33 36.02 165.76 29.84 162.23 31.54 M 172.60 35.61 C 172.57 36.51 172.54 37.40 172.51 38.30 C 174.06 37.82 175.63 37.35 177.20 36.90 C 177.36 36.44 177.67 35.51 177.83 35.04 C 176.09 35.22 174.34 35.42 172.60 35.61 M 164.26 37.45 C 163.04 37.76 161.40 39.21 161.97 40.57 C 163.41 41.35 165.88 38.26 164.26 37.45 M 171.77 41.07 C 172.84 43.76 175.47 41.97 177.48 41.59 C 177.39 41.11 177.21 40.17 177.12 39.69 C 175.34 40.17 173.56 40.63 171.77 41.07 M 171.80 59.37 C 173.22 57.50 174.56 55.58 175.93 53.68 C 174.66 52.58 173.39 51.48 172.11 50.39 C 171.88 53.38 171.82 56.37 171.80 59.37 Z" />
<path fill="#df0615" opacity="1.00" d=" M 171.27 28.77 C 173.38 25.82 175.46 22.80 177.92 20.12 C 180.40 20.38 181.19 23.87 182.67 25.58 C 179.12 27.36 175.34 29.01 171.27 28.77 Z" />
<path fill="#df0615" opacity="1.00" d=" M 205.47 33.44 C 206.35 28.96 207.08 24.44 208.57 20.11 C 210.77 21.14 212.92 22.26 214.97 23.56 C 214.28 25.01 213.60 26.45 212.93 27.91 C 210.20 29.40 207.73 31.30 205.47 33.44 Z" />
<path fill="#df0615" opacity="1.00" d=" M 112.13 28.09 C 116.15 27.16 120.06 25.81 124.06 24.82 C 126.46 24.04 128.04 26.44 129.71 27.68 C 127.73 31.02 125.72 34.35 123.84 37.76 C 126.00 37.51 128.14 36.87 130.33 36.87 C 132.58 37.48 133.40 39.92 134.58 41.67 C 130.36 45.76 127.08 50.67 124.41 55.88 C 128.39 55.67 132.33 55.03 136.16 53.92 C 137.44 55.01 138.78 56.04 139.91 57.28 C 140.11 59.23 138.35 60.45 137.35 61.87 C 134.29 61.33 131.01 60.83 128.21 62.56 C 127.91 62.49 127.31 62.36 127.02 62.29 C 128.26 61.26 129.49 60.23 130.72 59.19 C 122.49 59.75 114.32 61.47 106.74 64.77 C 102.68 66.63 98.15 66.71 93.83 67.49 C 91.31 64.76 88.58 62.25 85.85 59.73 C 89.22 58.42 92.49 60.30 95.84 60.63 C 102.28 61.42 108.68 59.71 114.81 57.88 C 116.14 57.35 117.95 57.17 118.52 55.62 C 120.54 51.39 122.63 47.21 124.67 42.99 C 118.48 44.54 118.10 51.96 113.64 55.49 C 112.00 56.98 109.81 55.98 107.93 55.73 C 109.30 52.67 110.90 49.71 112.73 46.90 C 111.35 46.78 109.97 46.65 108.60 46.52 C 107.95 45.39 107.31 44.26 106.68 43.12 C 109.55 42.30 112.51 41.62 115.17 40.22 C 118.08 38.75 118.47 35.23 119.55 32.51 C 116.23 32.77 113.15 31.47 112.13 28.09 Z" />
<path fill="#df0615" opacity="1.00" d=" M 203.52 41.90 C 203.90 39.54 204.68 37.27 205.44 35.00 C 207.17 36.63 210.56 37.38 210.70 40.15 C 210.23 43.13 208.56 45.80 208.32 48.83 C 208.18 51.60 208.48 54.37 208.85 57.10 C 210.82 53.48 210.75 49.15 212.63 45.49 C 212.59 51.34 211.56 57.38 213.53 63.05 C 214.25 65.46 211.61 66.62 210.23 68.00 C 208.98 66.83 207.75 65.65 206.53 64.47 C 207.07 56.70 201.94 49.68 203.52 41.90 Z" />
</g>
</svg>
